<svg xmlns="http://www.w3.org/2000/svg" xmlns:xlink="http://www.w3.org/1999/xlink" width="1024" zoomAndPan="magnify" viewBox="0 0 768 767.999994" height="1024" preserveAspectRatio="xMidYMid meet" version="1.0"><defs><g/><clipPath id="b31f83a1c2"><path d="M 0.320312 0.679688 L 585.199219 0.679688 L 585.199219 313 L 0.320312 313 Z M 0.320312 0.679688 " clip-rule="nonzero"/></clipPath><clipPath id="dcddf79753"><rect x="0" width="586" y="0" height="313"/></clipPath><clipPath id="a736133a90"><path d="M 0.320312 201 L 574 201 L 574 502.28125 L 0.320312 502.28125 Z M 0.320312 201 " clip-rule="nonzero"/></clipPath><clipPath id="33bd426f23"><rect x="0" width="574" y="0" height="302"/></clipPath><clipPath id="9e7532013a"><rect x="0" width="586" y="0" height="503"/></clipPath></defs><g transform="matrix(1, 0, 0, 1, 94, 133)"><g clip-path="url(#9e7532013a)"><g clip-path="url(#b31f83a1c2)"><g transform="matrix(1, 0, 0, 1, 0, -0.000000000000056843)"><g clip-path="url(#dcddf79753)"><g fill="#435487" fill-opacity="1"><g transform="translate(0.326012, 234.557911)"><g><path d="M 20.265625 -154.96875 C 20.265625 -146.863281 21.976562 -138.03125 25.40625 -128.46875 C 28.84375 -118.90625 33.003906 -109.132812 37.890625 -99.15625 C 42.773438 -89.175781 47.96875 -79.300781 53.46875 -69.53125 C 58.976562 -59.757812 63.757812 -50.457031 67.8125 -41.625 C 71.875 -32.789062 74.835938 -24.785156 76.703125 -17.609375 C 78.578125 -10.441406 78.367188 -4.570312 76.078125 0 L 3.125 0 L 3.125 -2.1875 C 4.570312 -2.1875 5.972656 -2.34375 7.328125 -2.65625 C 8.679688 -2.96875 9.875 -4.265625 10.90625 -6.546875 C 11.945312 -8.835938 12.726562 -12.472656 13.25 -17.453125 C 13.769531 -22.441406 14.03125 -29.515625 14.03125 -38.671875 L 14.03125 -178.984375 C 14.03125 -188.335938 13.769531 -195.507812 13.25 -200.5 C 12.726562 -205.488281 11.945312 -209.125 10.90625 -211.40625 C 9.875 -213.695312 8.679688 -215 7.328125 -215.3125 C 5.972656 -215.625 4.570312 -215.78125 3.125 -215.78125 L 3.125 -217.640625 L 77.953125 -217.640625 L 125.65625 -112.25 L 163.078125 -217.640625 L 230.125 -217.640625 L 230.125 -215.78125 C 228.457031 -215.78125 227 -215.625 225.75 -215.3125 C 224.5 -215 223.351562 -213.695312 222.3125 -211.40625 C 221.28125 -209.125 220.503906 -205.488281 219.984375 -200.5 C 219.460938 -195.507812 219.203125 -188.335938 219.203125 -178.984375 L 219.203125 -38.671875 C 219.203125 -29.515625 219.460938 -22.441406 219.984375 -17.453125 C 220.503906 -12.472656 221.28125 -8.835938 222.3125 -6.546875 C 223.351562 -4.265625 224.5 -2.96875 225.75 -2.65625 C 227 -2.34375 228.457031 -2.1875 230.125 -2.1875 L 230.125 0 L 146.234375 0 L 146.234375 -2.1875 C 147.691406 -2.1875 149.09375 -2.34375 150.4375 -2.65625 C 151.789062 -2.96875 152.988281 -4.265625 154.03125 -6.546875 C 155.070312 -8.835938 155.851562 -12.472656 156.375 -17.453125 C 156.894531 -22.441406 157.15625 -29.515625 157.15625 -38.671875 L 157.15625 -181.15625 L 102.28125 -27.75 L 42.40625 -159.03125 C 37.832031 -168.59375 34.085938 -174.828125 31.171875 -177.734375 C 28.265625 -180.640625 26.03125 -181.3125 24.46875 -179.75 C 22.914062 -178.195312 21.828125 -175.082031 21.203125 -170.40625 C 20.578125 -165.726562 20.265625 -160.582031 20.265625 -154.96875 Z M 20.265625 -154.96875 "/></g></g></g><g fill="#435487" fill-opacity="1"><g transform="translate(233.561405, 234.557911)"><g><path d="M 166.203125 -58 C 166.816406 -57.582031 166.8125 -55.8125 166.1875 -52.6875 C 165.570312 -49.570312 164.171875 -45.78125 161.984375 -41.3125 C 159.804688 -36.84375 156.738281 -32.113281 152.78125 -27.125 C 148.832031 -22.132812 144 -17.507812 138.28125 -13.25 C 132.570312 -8.988281 125.816406 -5.453125 118.015625 -2.640625 C 110.222656 0.160156 101.335938 1.5625 91.359375 1.5625 C 77.222656 1.5625 64.800781 -1.609375 54.09375 -7.953125 C 43.394531 -14.296875 34.5625 -22.660156 27.59375 -33.046875 C 20.632812 -43.441406 15.382812 -55.238281 11.84375 -68.4375 C 8.3125 -81.644531 6.546875 -95.160156 6.546875 -108.984375 C 6.546875 -122.804688 8.257812 -136.316406 11.6875 -149.515625 C 15.125 -162.710938 20.269531 -174.507812 27.125 -184.90625 C 33.988281 -195.300781 42.5625 -203.664062 52.84375 -210 C 63.132812 -216.34375 75.039062 -219.515625 88.5625 -219.515625 C 97.914062 -219.515625 105.863281 -218.734375 112.40625 -217.171875 C 118.957031 -215.617188 124.625 -214.269531 129.40625 -213.125 C 134.1875 -211.976562 138.289062 -211.507812 141.71875 -211.71875 C 145.144531 -211.925781 148.316406 -213.898438 151.234375 -217.640625 C 152.265625 -218.890625 153.351562 -219.359375 154.5 -219.046875 C 155.644531 -218.734375 156.21875 -218.054688 156.21875 -217.015625 C 156.21875 -213.898438 155.488281 -209.171875 154.03125 -202.828125 C 152.582031 -196.492188 150.503906 -190.15625 147.796875 -183.8125 C 145.097656 -177.46875 141.875 -171.851562 138.125 -166.96875 C 134.382812 -162.082031 130.226562 -159.640625 125.65625 -159.640625 C 122.125 -159.640625 119.054688 -160.882812 116.453125 -163.375 C 113.859375 -165.875 111.46875 -168.992188 109.28125 -172.734375 C 107.101562 -176.484375 104.972656 -180.488281 102.890625 -184.75 C 100.816406 -189.007812 98.476562 -193.007812 95.875 -196.75 C 93.28125 -200.488281 90.265625 -203.601562 86.828125 -206.09375 C 83.398438 -208.59375 79.296875 -209.84375 74.515625 -209.84375 C 69.535156 -209.84375 65.273438 -207.765625 61.734375 -203.609375 C 58.203125 -199.453125 55.394531 -193.890625 53.3125 -186.921875 C 51.238281 -179.960938 49.890625 -171.960938 49.265625 -162.921875 C 48.640625 -153.878906 48.742188 -144.367188 49.578125 -134.390625 C 53.316406 -137.710938 57.992188 -139.894531 63.609375 -140.9375 C 69.222656 -141.976562 75.144531 -142.445312 81.375 -142.34375 C 87.613281 -142.238281 93.953125 -141.875 100.390625 -141.25 C 106.835938 -140.625 112.816406 -140.257812 118.328125 -140.15625 C 123.835938 -140.050781 128.617188 -140.519531 132.671875 -141.5625 C 136.722656 -142.601562 139.582031 -144.785156 141.25 -148.109375 C 142.082031 -149.566406 143.117188 -150.085938 144.359375 -149.671875 C 145.609375 -149.253906 146.234375 -148.523438 146.234375 -147.484375 C 146.234375 -144.367188 145.816406 -140.472656 144.984375 -135.796875 C 144.160156 -131.117188 142.601562 -126.597656 140.3125 -122.234375 C 138.03125 -117.867188 134.910156 -114.070312 130.953125 -110.84375 C 127.003906 -107.625 121.914062 -106.015625 115.6875 -106.015625 C 109.863281 -106.015625 104.40625 -107 99.3125 -108.96875 C 94.21875 -110.945312 89.539062 -113.285156 85.28125 -115.984375 C 81.019531 -118.691406 77.117188 -121.394531 73.578125 -124.09375 C 70.046875 -126.800781 66.828125 -128.984375 63.921875 -130.640625 C 61.015625 -132.304688 58.46875 -133.035156 56.28125 -132.828125 C 54.101562 -132.617188 52.179688 -130.957031 50.515625 -127.84375 C 51.972656 -116.40625 54.414062 -105.070312 57.84375 -93.84375 C 61.269531 -82.625 65.84375 -72.597656 71.5625 -63.765625 C 77.28125 -54.929688 84.085938 -47.8125 91.984375 -42.40625 C 99.878906 -37 108.921875 -34.296875 119.109375 -34.296875 C 126.597656 -34.296875 132.988281 -35.644531 138.28125 -38.34375 C 143.582031 -41.050781 148.101562 -43.960938 151.84375 -47.078125 C 155.59375 -50.203125 158.609375 -52.957031 160.890625 -55.34375 C 163.179688 -57.738281 164.953125 -58.625 166.203125 -58 Z M 166.203125 -58 "/></g></g></g><g fill="#435487" fill-opacity="1"><g transform="translate(406.617105, 234.557911)"><g><path d="M 92.296875 -217.640625 C 104.765625 -217.640625 115.625 -214.519531 124.875 -208.28125 C 134.125 -202.050781 141.867188 -193.84375 148.109375 -183.65625 C 154.347656 -173.46875 158.972656 -161.878906 161.984375 -148.890625 C 165.003906 -135.898438 166.515625 -122.597656 166.515625 -108.984375 C 166.515625 -95.367188 165.003906 -82.0625 161.984375 -69.0625 C 158.972656 -56.070312 154.347656 -44.484375 148.109375 -34.296875 C 141.867188 -24.109375 134.125 -15.894531 124.875 -9.65625 C 115.625 -3.425781 104.765625 -0.3125 92.296875 -0.3125 L 3.125 0 L 3.125 -2.1875 C 4.570312 -2.1875 5.972656 -2.34375 7.328125 -2.65625 C 8.679688 -2.96875 9.820312 -4.265625 10.75 -6.546875 C 11.6875 -8.835938 12.414062 -12.472656 12.9375 -17.453125 C 13.457031 -22.441406 13.71875 -29.515625 13.71875 -38.671875 L 13.71875 -178.984375 C 13.71875 -188.335938 13.457031 -195.507812 12.9375 -200.5 C 12.414062 -205.488281 11.6875 -209.125 10.75 -211.40625 C 9.820312 -213.695312 8.679688 -215 7.328125 -215.3125 C 5.972656 -215.625 4.570312 -215.78125 3.125 -215.78125 L 3.125 -217.640625 Z M 77.328125 -3.734375 C 82.941406 -3.734375 87.878906 -6.59375 92.140625 -12.3125 C 96.398438 -18.03125 99.929688 -25.566406 102.734375 -34.921875 C 105.546875 -44.273438 107.625 -54.976562 108.96875 -67.03125 C 110.320312 -79.09375 110.945312 -91.515625 110.84375 -104.296875 C 110.738281 -117.085938 110.007812 -129.664062 108.65625 -142.03125 C 107.3125 -154.394531 105.234375 -165.671875 102.421875 -175.859375 C 99.617188 -186.046875 96.140625 -194.566406 91.984375 -201.421875 C 87.828125 -208.285156 82.941406 -212.445312 77.328125 -213.90625 C 78.367188 -209.125 77.691406 -203.925781 75.296875 -198.3125 C 72.910156 -192.695312 69.585938 -186.820312 65.328125 -180.6875 C 61.066406 -174.5625 56.285156 -168.273438 50.984375 -161.828125 C 45.679688 -155.390625 40.742188 -149.050781 36.171875 -142.8125 C 31.597656 -136.570312 27.75 -130.539062 24.625 -124.71875 C 21.507812 -118.90625 19.953125 -113.609375 19.953125 -108.828125 C 19.953125 -103.835938 21.507812 -98.484375 24.625 -92.765625 C 27.75 -87.046875 31.648438 -81.066406 36.328125 -74.828125 C 41.003906 -68.597656 45.941406 -62.257812 51.140625 -55.8125 C 56.335938 -49.363281 61.066406 -43.019531 65.328125 -36.78125 C 69.585938 -30.550781 72.910156 -24.628906 75.296875 -19.015625 C 77.691406 -13.410156 78.265625 -8.316406 77.015625 -3.734375 Z M 77.328125 -3.734375 "/></g></g></g></g></g></g><g clip-path="url(#a736133a90)"><g transform="matrix(1, 0, 0, 1, 0, 201)"><g clip-path="url(#33bd426f23)"><g fill="#435487" fill-opacity="1"><g transform="translate(0.326012, 226.074312)"><g><path d="M 152.703125 -36.96875 C 152.703125 -28.15625 152.953125 -21.34375 153.453125 -16.53125 C 153.953125 -11.71875 154.648438 -8.207031 155.546875 -6 C 156.453125 -3.800781 157.503906 -2.550781 158.703125 -2.25 C 159.910156 -1.945312 161.316406 -1.796875 162.921875 -1.796875 L 162.921875 0.296875 L 91.984375 0.296875 L 91.984375 -1.796875 C 93.378906 -1.796875 94.726562 -1.945312 96.03125 -2.25 C 97.34375 -2.550781 98.445312 -3.800781 99.34375 -6 C 100.25 -8.207031 100.953125 -11.71875 101.453125 -16.53125 C 101.953125 -21.34375 102.203125 -28.15625 102.203125 -36.96875 L 102.203125 -75.75 C 102.203125 -83.757812 101.898438 -91.222656 101.296875 -98.140625 C 100.691406 -105.054688 99.535156 -111.019531 97.828125 -116.03125 C 96.128906 -121.039062 93.925781 -125 91.21875 -127.90625 C 88.519531 -130.8125 85.066406 -132.265625 80.859375 -132.265625 C 74.847656 -132.265625 70.488281 -129.207031 67.78125 -123.09375 C 65.070312 -116.976562 63.71875 -106.003906 63.71875 -90.171875 L 63.71875 -36.96875 C 63.71875 -28.15625 63.96875 -21.34375 64.46875 -16.53125 C 64.976562 -11.71875 65.734375 -8.207031 66.734375 -6 C 67.734375 -3.800781 68.832031 -2.550781 70.03125 -2.25 C 71.238281 -1.945312 72.644531 -1.796875 74.25 -1.796875 L 74.25 0.296875 L 3 0.296875 L 3 -1.796875 C 4.40625 -1.796875 5.757812 -1.945312 7.0625 -2.25 C 8.363281 -2.550781 9.460938 -3.800781 10.359375 -6 C 11.265625 -8.207031 11.96875 -11.71875 12.46875 -16.53125 C 12.96875 -21.34375 13.21875 -28.15625 13.21875 -36.96875 L 13.21875 -104 C 13.21875 -113.019531 12.96875 -119.785156 12.46875 -124.296875 C 11.96875 -128.804688 11.265625 -132.0625 10.359375 -134.0625 C 9.460938 -136.070312 8.363281 -137.125 7.0625 -137.21875 C 5.757812 -137.320312 4.40625 -137.375 3 -137.375 L 3 -139.46875 L 18.34375 -142.484375 L 59.8125 -151.5 C 60.820312 -151.894531 61.722656 -151.742188 62.515625 -151.046875 C 63.316406 -150.347656 63.71875 -149.5 63.71875 -148.5 L 63.71875 -131.65625 C 66.332031 -136.664062 70.539062 -141.273438 76.34375 -145.484375 C 82.15625 -149.691406 90.570312 -151.796875 101.59375 -151.796875 C 120.4375 -151.796875 133.664062 -145.332031 141.28125 -132.40625 C 148.894531 -119.476562 152.703125 -100.691406 152.703125 -76.046875 Z M 152.703125 -36.96875 "/></g></g></g><g fill="#435487" fill-opacity="1"><g transform="translate(166.255321, 226.074312)"><g><path d="M 131.65625 -39.375 C 132.457031 -38.976562 132.109375 -36.570312 130.609375 -32.15625 C 129.109375 -27.75 126.101562 -23.039062 121.59375 -18.03125 C 117.082031 -13.019531 110.96875 -8.460938 103.25 -4.359375 C 95.539062 -0.253906 85.972656 1.796875 74.546875 1.796875 C 63.117188 1.796875 53.144531 -0.40625 44.625 -4.8125 C 36.113281 -9.21875 29.050781 -15.023438 23.4375 -22.234375 C 17.832031 -29.453125 13.578125 -37.671875 10.671875 -46.890625 C 7.765625 -56.109375 6.3125 -65.476562 6.3125 -75 C 6.3125 -84.519531 7.660156 -93.890625 10.359375 -103.109375 C 13.066406 -112.328125 17.175781 -120.539062 22.6875 -127.75 C 28.207031 -134.96875 35.125 -140.78125 43.4375 -145.1875 C 51.75 -149.59375 61.414062 -151.796875 72.4375 -151.796875 C 81.257812 -151.796875 89.328125 -150.941406 96.640625 -149.234375 C 103.953125 -147.535156 110.210938 -144.882812 115.421875 -141.28125 C 120.640625 -137.675781 124.695312 -132.96875 127.59375 -127.15625 C 130.5 -121.34375 131.953125 -114.425781 131.953125 -106.40625 C 131.953125 -98.988281 129.945312 -92.273438 125.9375 -86.265625 C 121.9375 -80.253906 116.53125 -75.296875 109.71875 -71.390625 C 102.90625 -67.484375 94.9375 -64.828125 85.8125 -63.421875 C 76.695312 -62.023438 67.128906 -62.226562 57.109375 -64.03125 C 60.316406 -53.601562 65.078125 -44.832031 71.390625 -37.71875 C 77.703125 -30.601562 85.867188 -27.046875 95.890625 -27.046875 C 101.503906 -27.046875 106.3125 -27.796875 110.3125 -29.296875 C 114.320312 -30.804688 117.78125 -32.363281 120.6875 -33.96875 C 123.59375 -35.570312 125.894531 -37.023438 127.59375 -38.328125 C 129.300781 -39.628906 130.65625 -39.976562 131.65625 -39.375 Z M 75.75 -145.1875 C 70.9375 -145.382812 66.773438 -143.226562 63.265625 -138.71875 C 59.765625 -134.207031 57.113281 -128.445312 55.3125 -121.4375 C 53.507812 -114.425781 52.554688 -106.5625 52.453125 -97.84375 C 52.347656 -89.125 53.203125 -80.554688 55.015625 -72.140625 C 62.222656 -73.347656 68.332031 -75.953125 73.34375 -79.953125 C 78.351562 -83.960938 82.3125 -88.625 85.21875 -93.9375 C 88.125 -99.25 90.023438 -104.910156 90.921875 -110.921875 C 91.828125 -116.929688 91.828125 -122.441406 90.921875 -127.453125 C 90.023438 -132.460938 88.273438 -136.617188 85.671875 -139.921875 C 83.066406 -143.234375 79.757812 -144.988281 75.75 -145.1875 Z M 75.75 -145.1875 "/></g></g></g><g fill="#435487" fill-opacity="1"><g transform="translate(304.529792, 226.074312)"><g><path d="M 41.78125 -133.765625 C 41.78125 -127.554688 43.929688 -122.296875 48.234375 -117.984375 C 52.546875 -113.671875 58.007812 -109.710938 64.625 -106.109375 C 71.238281 -102.503906 78.300781 -98.894531 85.8125 -95.28125 C 93.332031 -91.675781 100.398438 -87.566406 107.015625 -82.953125 C 113.628906 -78.347656 119.085938 -72.9375 123.390625 -66.71875 C 127.703125 -60.507812 129.859375 -52.898438 129.859375 -43.890625 C 129.859375 -37.472656 128.554688 -31.507812 125.953125 -26 C 123.347656 -20.488281 119.4375 -15.675781 114.21875 -11.5625 C 109.007812 -7.457031 102.546875 -4.203125 94.828125 -1.796875 C 87.117188 0.597656 78.054688 1.796875 67.640625 1.796875 C 60.023438 1.796875 53.207031 1.242188 47.1875 0.140625 C 41.175781 -0.953125 35.765625 -1.898438 30.953125 -2.703125 C 26.148438 -3.503906 22.046875 -3.804688 18.640625 -3.609375 C 15.234375 -3.410156 12.328125 -2.007812 9.921875 0.59375 C 9.117188 1.601562 8.265625 2.003906 7.359375 1.796875 C 6.460938 1.597656 6.015625 1.097656 6.015625 0.296875 C 6.015625 -1.898438 6.613281 -5.203125 7.8125 -9.609375 C 9.019531 -14.023438 10.675781 -18.488281 12.78125 -23 C 14.882812 -27.507812 17.488281 -31.414062 20.59375 -34.71875 C 23.695312 -38.019531 27.050781 -39.671875 30.65625 -39.671875 C 35.070312 -39.671875 38.878906 -37.867188 42.078125 -34.265625 C 45.285156 -30.660156 48.441406 -26.648438 51.546875 -22.234375 C 54.660156 -17.828125 58.019531 -13.820312 61.625 -10.21875 C 65.226562 -6.613281 69.632812 -4.8125 74.84375 -4.8125 C 79.457031 -4.8125 83.617188 -6.160156 87.328125 -8.859375 C 91.035156 -11.566406 92.890625 -16.128906 92.890625 -22.546875 C 92.890625 -27.953125 90.785156 -32.757812 86.578125 -36.96875 C 82.367188 -41.175781 77.109375 -45.234375 70.796875 -49.140625 C 64.484375 -53.054688 57.617188 -56.96875 50.203125 -60.875 C 42.785156 -64.78125 35.921875 -69.1875 29.609375 -74.09375 C 23.296875 -79 18.035156 -84.507812 13.828125 -90.625 C 9.617188 -96.738281 7.515625 -104.003906 7.515625 -112.421875 C 7.515625 -119.640625 8.816406 -125.703125 11.421875 -130.609375 C 14.023438 -135.515625 17.429688 -139.570312 21.640625 -142.78125 C 25.847656 -145.988281 30.609375 -148.289062 35.921875 -149.6875 C 41.234375 -151.09375 46.492188 -151.796875 51.703125 -151.796875 C 59.117188 -151.796875 66.28125 -151.242188 73.1875 -150.140625 C 80.101562 -149.046875 86.414062 -148.097656 92.125 -147.296875 C 97.84375 -146.492188 102.804688 -146.191406 107.015625 -146.390625 C 111.222656 -146.585938 114.53125 -147.890625 116.9375 -150.296875 C 117.9375 -151.296875 118.882812 -151.695312 119.78125 -151.5 C 120.6875 -151.300781 121.140625 -150.800781 121.140625 -150 C 121.140625 -147.789062 120.488281 -144.484375 119.1875 -140.078125 C 117.882812 -135.671875 116.179688 -131.257812 114.078125 -126.84375 C 111.972656 -122.4375 109.363281 -118.53125 106.25 -115.125 C 103.144531 -111.71875 99.789062 -110.015625 96.1875 -110.015625 C 91.976562 -110.015625 88.421875 -111.816406 85.515625 -115.421875 C 82.609375 -119.035156 79.703125 -123.046875 76.796875 -127.453125 C 73.890625 -131.859375 70.582031 -135.863281 66.875 -139.46875 C 63.175781 -143.082031 58.316406 -144.890625 52.296875 -144.890625 C 48.296875 -144.890625 45.539062 -143.734375 44.03125 -141.421875 C 42.53125 -139.117188 41.78125 -136.566406 41.78125 -133.765625 Z M 41.78125 -133.765625 "/></g></g></g><g fill="#435487" fill-opacity="1"><g transform="translate(434.387612, 226.074312)"><g><path d="M 41.78125 -133.765625 C 41.78125 -127.554688 43.929688 -122.296875 48.234375 -117.984375 C 52.546875 -113.671875 58.007812 -109.710938 64.625 -106.109375 C 71.238281 -102.503906 78.300781 -98.894531 85.8125 -95.28125 C 93.332031 -91.675781 100.398438 -87.566406 107.015625 -82.953125 C 113.628906 -78.347656 119.085938 -72.9375 123.390625 -66.71875 C 127.703125 -60.507812 129.859375 -52.898438 129.859375 -43.890625 C 129.859375 -37.472656 128.554688 -31.507812 125.953125 -26 C 123.347656 -20.488281 119.4375 -15.675781 114.21875 -11.5625 C 109.007812 -7.457031 102.546875 -4.203125 94.828125 -1.796875 C 87.117188 0.597656 78.054688 1.796875 67.640625 1.796875 C 60.023438 1.796875 53.207031 1.242188 47.1875 0.140625 C 41.175781 -0.953125 35.765625 -1.898438 30.953125 -2.703125 C 26.148438 -3.503906 22.046875 -3.804688 18.640625 -3.609375 C 15.234375 -3.410156 12.328125 -2.007812 9.921875 0.59375 C 9.117188 1.601562 8.265625 2.003906 7.359375 1.796875 C 6.460938 1.597656 6.015625 1.097656 6.015625 0.296875 C 6.015625 -1.898438 6.613281 -5.203125 7.8125 -9.609375 C 9.019531 -14.023438 10.675781 -18.488281 12.78125 -23 C 14.882812 -27.507812 17.488281 -31.414062 20.59375 -34.71875 C 23.695312 -38.019531 27.050781 -39.671875 30.65625 -39.671875 C 35.070312 -39.671875 38.878906 -37.867188 42.078125 -34.265625 C 45.285156 -30.660156 48.441406 -26.648438 51.546875 -22.234375 C 54.660156 -17.828125 58.019531 -13.820312 61.625 -10.21875 C 65.226562 -6.613281 69.632812 -4.8125 74.84375 -4.8125 C 79.457031 -4.8125 83.617188 -6.160156 87.328125 -8.859375 C 91.035156 -11.566406 92.890625 -16.128906 92.890625 -22.546875 C 92.890625 -27.953125 90.785156 -32.757812 86.578125 -36.96875 C 82.367188 -41.175781 77.109375 -45.234375 70.796875 -49.140625 C 64.484375 -53.054688 57.617188 -56.96875 50.203125 -60.875 C 42.785156 -64.78125 35.921875 -69.1875 29.609375 -74.09375 C 23.296875 -79 18.035156 -84.507812 13.828125 -90.625 C 9.617188 -96.738281 7.515625 -104.003906 7.515625 -112.421875 C 7.515625 -119.640625 8.816406 -125.703125 11.421875 -130.609375 C 14.023438 -135.515625 17.429688 -139.570312 21.640625 -142.78125 C 25.847656 -145.988281 30.609375 -148.289062 35.921875 -149.6875 C 41.234375 -151.09375 46.492188 -151.796875 51.703125 -151.796875 C 59.117188 -151.796875 66.28125 -151.242188 73.1875 -150.140625 C 80.101562 -149.046875 86.414062 -148.097656 92.125 -147.296875 C 97.84375 -146.492188 102.804688 -146.191406 107.015625 -146.390625 C 111.222656 -146.585938 114.53125 -147.890625 116.9375 -150.296875 C 117.9375 -151.296875 118.882812 -151.695312 119.78125 -151.5 C 120.6875 -151.300781 121.140625 -150.800781 121.140625 -150 C 121.140625 -147.789062 120.488281 -144.484375 119.1875 -140.078125 C 117.882812 -135.671875 116.179688 -131.257812 114.078125 -126.84375 C 111.972656 -122.4375 109.363281 -118.53125 106.25 -115.125 C 103.144531 -111.71875 99.789062 -110.015625 96.1875 -110.015625 C 91.976562 -110.015625 88.421875 -111.816406 85.515625 -115.421875 C 82.609375 -119.035156 79.703125 -123.046875 76.796875 -127.453125 C 73.890625 -131.859375 70.582031 -135.863281 66.875 -139.46875 C 63.175781 -143.082031 58.316406 -144.890625 52.296875 -144.890625 C 48.296875 -144.890625 45.539062 -143.734375 44.03125 -141.421875 C 42.53125 -139.117188 41.78125 -136.566406 41.78125 -133.765625 Z M 41.78125 -133.765625 "/></g></g></g></g></g></g></g></g></svg>